<?xml version="1.0" encoding="utf-8"?><!-- Uploaded to: SVG Repo, www.svgrepo.com, Generator: SVG Repo Mixer Tools -->
<svg fill="#000000" width="800px" height="800px" viewBox="-3 0 42 42" xmlns="http://www.w3.org/2000/svg">
  <path id="_37.Stopwatch" data-name="37.Stopwatch" d="M37.386,15A17.993,17.993,0,1,1,21,9.27V5H19a1,1,0,0,1,0-2H29a1,1,0,0,1,0,2H27V9.265a17.967,17.967,0,0,1,9.005,4.35l2.329-2.329a.977.977,0,1,1,1.381,1.381ZM25,5H23V9.051c.333-.019.662-.051,1-.051s.667.029,1,.047Zm-1,6A16,16,0,1,0,40,27,16,16,0,0,0,24,11Zm0,20a4,4,0,0,1-4-4,3.954,3.954,0,0,1,.578-2.041l-5.293-5.292a.977.977,0,0,1,1.381-1.381l5.293,5.292A3.957,3.957,0,0,1,24,23a4,4,0,0,1,0,8Zm0-6a2,2,0,1,0,2,2A2,2,0,0,0,24,25Z" transform="translate(-6 -3)" fill-rule="evenodd"/>
</svg>