<?xml version="1.0" encoding="UTF-8" standalone="no"?>
<!-- Uploaded to: SVG Repo, www.svgrepo.com, Generator: SVG Repo Mixer Tools -->

<svg
   fill="#000000"
   height="800"
   width="800"
   version="1.1"
   id="Layer_1"
   viewBox="0 0 486.576 486.576"
   xml:space="preserve"
   xmlns="http://www.w3.org/2000/svg"
   xmlns:svg="http://www.w3.org/2000/svg"><defs
   id="defs5" />
<g
   id="g5"
   style="fill:#292c83;fill-opacity:1">
	<path
   d="m 130.151,247.487 c -62.384,-62.384 -62.384,-163.89 0,-226.274 L 108.938,0 c -74.081,74.081 -74.081,194.619 0,268.7 z"
   id="path1"
   style="fill:#292c83;fill-opacity:1" />
	<path
   d="m 356.425,247.487 21.213,21.213 c 74.081,-74.081 74.081,-194.619 0,-268.7 l -21.213,21.213 c 62.384,62.384 62.384,163.89 0,226.274 z"
   id="path2"
   style="fill:#292c83;fill-opacity:1" />
	<path
   d="m 158.436,219.203 21.213,-21.213 c -16.967,-16.967 -26.312,-39.568 -26.312,-63.64 0,-24.072 9.344,-46.672 26.312,-63.64 L 158.436,49.497 c -22.634,22.633 -35.099,52.768 -35.099,84.853 0,32.085 12.465,62.219 35.099,84.853 z"
   id="path3"
   style="fill:#292c83;fill-opacity:1" />
	<path
   d="m 328.141,219.203 c 22.634,-22.633 35.099,-52.768 35.099,-84.853 0,-32.085 -12.465,-62.219 -35.099,-84.853 L 306.928,70.71 c 16.967,16.967 26.312,39.568 26.312,63.64 0,24.072 -9.344,46.672 -26.312,63.64 z"
   id="path4"
   style="fill:#292c83;fill-opacity:1" />
	<path
   d="m 262.19,180.629 c 18.224,-7.471 31.099,-25.395 31.099,-46.279 0,-27.57 -22.43,-50 -50,-50 -27.57,0 -50,22.43 -50,50 0,20.883 12.874,38.808 31.098,46.279 L 144.129,456.577 H 85.387 v 30 h 315.794 v -30 H 342.44 Z m 19.689,175.133 -77.188,0.007 38.597,-132.705 z M 243.288,114.35 c 11.028,0 20,8.972 20,20 0,11.028 -8.972,20 -20,20 -11.028,0 -20,-8.972 -20,-20 0,-11.028 8.972,-20 20,-20 z m -47.323,271.42 94.638,-0.008 20.594,70.815 H 175.371 Z"
   id="path5"
   style="fill:#292c83;fill-opacity:1" />
</g>
<g
   style="fill:#000000"
   id="g6"
   transform="matrix(0.73553224,0,0,0.8143156,139.98577,163.38635)"><path
     d="m 435.332,293.684 v -74.847 c 0,-6.904 -5.597,-12.5 -12.5,-12.5 h -16.197 v -55.5 c 0,-6.904 -5.596,-12.5 -12.5,-12.5 -6.904,0 -12.5,5.596 -12.5,12.5 v 55.5 H 330.45 v -55.5 c 0,-6.904 -5.597,-12.5 -12.5,-12.5 h -73.884 c -5.403,0 -10.195,3.472 -11.878,8.606 L 228.91,156.942 50.752,75.517 c -3.016,-1.378 -6.456,-1.502 -9.562,-0.344 -3.107,1.158 -5.626,3.502 -7.004,6.518 l -19.3,42.24 c -2.578,5.642 -0.628,12.322 4.581,15.691 L 33,148.375 v 92.147 c -19.028,5.446 -33,22.986 -33,43.74 0,25.089 20.411,45.5 45.5,45.5 25.089,0 45.5,-20.412 45.5,-45.5 0,-20.754 -13.972,-38.294 -33,-43.74 v -75.977 l 146.683,94.872 v 34.268 c -20.836,7.139 -35.862,26.908 -35.862,50.133 0,29.219 23.771,52.99 52.99,52.99 h 196.392 c 29.219,0 52.99,-23.771 52.99,-52.99 0.001,-23.226 -15.025,-42.995 -35.861,-50.134 z M 66,284.262 c 0,11.304 -9.196,20.5 -20.5,20.5 -11.304,0 -20.5,-9.196 -20.5,-20.5 0,-11.304 9.196,-20.5 20.5,-20.5 11.304,0 20.5,9.196 20.5,20.5 z m 251.949,-52.925 h 92.382 v 59.49 H 229.683 v -45.49 H 271.6 c 6.903,0 12.5,-5.596 12.5,-12.5 v -69.5 h 21.349 v 55.5 c 0,6.904 5.597,12.5 12.5,12.5 z m -58.849,-68 v 57 h -24.665 l 18.687,-57 z m -207.371,-59.886 169.343,77.397 -15.767,48.095 c -0.101,0.307 -0.188,0.618 -0.265,0.931 L 42.114,124.496 Z M 418.204,371.808 H 221.812 c -15.434,0 -27.99,-12.556 -27.99,-27.99 0,-15.434 12.556,-27.99 27.99,-27.99 h 196.392 c 15.434,0 27.99,12.556 27.99,27.99 0,15.434 -12.556,27.99 -27.99,27.99 z"
     id="path1-3" /></g></svg>
