<?xml version="1.0" encoding="UTF-8" standalone="no"?>
<!-- Uploaded to: SVG Repo, www.svgrepo.com, Generator: SVG Repo Mixer Tools -->

<svg
   fill="#000000"
   height="800"
   width="800"
   version="1.1"
   id="Layer_1"
   viewBox="0 0 486.576 486.576"
   xml:space="preserve"
   xmlns="http://www.w3.org/2000/svg"
   xmlns:svg="http://www.w3.org/2000/svg"
   xmlns:sketch="http://www.bohemiancoding.com/sketch/ns"><defs
   id="defs5" />
<g
   id="g5"
   style="fill:#fd7b02;fill-opacity:1">
	<path
   d="m 130.151,247.487 c -62.384,-62.384 -62.384,-163.89 0,-226.274 L 108.938,0 c -74.081,74.081 -74.081,194.619 0,268.7 z"
   id="path1"
   style="fill:#fd7b02;fill-opacity:1" />
	<path
   d="m 356.425,247.487 21.213,21.213 c 74.081,-74.081 74.081,-194.619 0,-268.7 l -21.213,21.213 c 62.384,62.384 62.384,163.89 0,226.274 z"
   id="path2"
   style="fill:#fd7b02;fill-opacity:1" />
	<path
   d="m 158.436,219.203 21.213,-21.213 c -16.967,-16.967 -26.312,-39.568 -26.312,-63.64 0,-24.072 9.344,-46.672 26.312,-63.64 L 158.436,49.497 c -22.634,22.633 -35.099,52.768 -35.099,84.853 0,32.085 12.465,62.219 35.099,84.853 z"
   id="path3"
   style="fill:#fd7b02;fill-opacity:1" />
	<path
   d="m 328.141,219.203 c 22.634,-22.633 35.099,-52.768 35.099,-84.853 0,-32.085 -12.465,-62.219 -35.099,-84.853 L 306.928,70.71 c 16.967,16.967 26.312,39.568 26.312,63.64 0,24.072 -9.344,46.672 -26.312,63.64 z"
   id="path4"
   style="fill:#fd7b02;fill-opacity:1" />
	<path
   d="m 262.19,180.629 c 18.224,-7.471 31.099,-25.395 31.099,-46.279 0,-27.57 -22.43,-50 -50,-50 -27.57,0 -50,22.43 -50,50 0,20.883 12.874,38.808 31.098,46.279 L 144.129,456.577 H 85.387 v 30 h 315.794 v -30 H 342.44 Z m 19.689,175.133 -77.188,0.007 38.597,-132.705 z M 243.288,114.35 c 11.028,0 20,8.972 20,20 0,11.028 -8.972,20 -20,20 -11.028,0 -20,-8.972 -20,-20 0,-11.028 8.972,-20 20,-20 z m -47.323,271.42 94.638,-0.008 20.594,70.815 H 175.371 Z"
   id="path5"
   style="fill:#fd7b02;fill-opacity:1" />
</g>
<path
   d="m 360.66036,471.17349 c -60.82618,0 -110.13534,-48.02546 -110.13534,-107.23388 0,-59.20843 49.30916,-107.2339 110.13534,-107.2339 60.82618,0 110.13535,48.02547 110.13535,107.2339 0,59.20842 -49.30917,107.23388 -110.13535,107.23388 z m 0,-229.7869 c -69.519,0 -125.86896,54.84248 -125.86896,122.55302 0,67.71053 56.34996,122.55301 125.86896,122.55301 69.51901,0 125.86897,-54.84248 125.86897,-122.55301 0,-67.71054 -56.34996,-122.55302 -125.86897,-122.55302 z m 47.20086,114.89345 h -39.33404 v -38.29782 c 0,-4.21276 -3.51647,-7.65956 -7.86682,-7.65956 -4.35035,0 -7.8668,3.4468 -7.8668,7.65956 v 38.29782 H 313.4595 c -4.35034,0 -7.86681,3.44681 -7.86681,7.65957 0,4.21275 3.51647,7.65956 7.86681,7.65956 h 39.33406 v 38.29781 c 0,4.21277 3.51645,7.65957 7.8668,7.65957 4.35035,0 7.86682,-3.4468 7.86682,-7.65957 v -38.29781 h 39.33404 c 4.35035,0 7.86682,-3.44681 7.86682,-7.65956 0,-4.21276 -3.51647,-7.65957 -7.86682,-7.65957 z"
   id="plus-circle"
   sketch:type="MSShapeGroup"
   style="fill:#000000;fill-rule:evenodd;stroke:none;stroke-width:7.76249" /></svg>
