<?xml version="1.0" encoding="UTF-8" standalone="no"?>
<!-- Uploaded to: SVG Repo, www.svgrepo.com, Generator: SVG Repo Mixer Tools -->

<svg
   fill="#000000"
   height="800"
   width="800"
   version="1.1"
   id="Layer_1"
   viewBox="0 0 486.576 486.576"
   xml:space="preserve"
   xmlns="http://www.w3.org/2000/svg"
   xmlns:svg="http://www.w3.org/2000/svg"
   xmlns:sketch="http://www.bohemiancoding.com/sketch/ns"><defs
   id="defs5" />
<g
   id="g5"
   style="fill:#e40012;fill-opacity:1">
	<path
   d="m 130.151,247.487 c -62.384,-62.384 -62.384,-163.89 0,-226.274 L 108.938,0 c -74.081,74.081 -74.081,194.619 0,268.7 z"
   id="path1"
   style="fill:#e40012;fill-opacity:1" />
	<path
   d="m 356.425,247.487 21.213,21.213 c 74.081,-74.081 74.081,-194.619 0,-268.7 l -21.213,21.213 c 62.384,62.384 62.384,163.89 0,226.274 z"
   id="path2"
   style="fill:#e40012;fill-opacity:1" />
	<path
   d="m 158.436,219.203 21.213,-21.213 c -16.967,-16.967 -26.312,-39.568 -26.312,-63.64 0,-24.072 9.344,-46.672 26.312,-63.64 L 158.436,49.497 c -22.634,22.633 -35.099,52.768 -35.099,84.853 0,32.085 12.465,62.219 35.099,84.853 z"
   id="path3"
   style="fill:#e40012;fill-opacity:1" />
	<path
   d="m 328.141,219.203 c 22.634,-22.633 35.099,-52.768 35.099,-84.853 0,-32.085 -12.465,-62.219 -35.099,-84.853 L 306.928,70.71 c 16.967,16.967 26.312,39.568 26.312,63.64 0,24.072 -9.344,46.672 -26.312,63.64 z"
   id="path4"
   style="fill:#e40012;fill-opacity:1" />
	<path
   d="m 262.19,180.629 c 18.224,-7.471 31.099,-25.395 31.099,-46.279 0,-27.57 -22.43,-50 -50,-50 -27.57,0 -50,22.43 -50,50 0,20.883 12.874,38.808 31.098,46.279 L 144.129,456.577 H 85.387 v 30 h 315.794 v -30 H 342.44 Z m 19.689,175.133 -77.188,0.007 38.597,-132.705 z M 243.288,114.35 c 11.028,0 20,8.972 20,20 0,11.028 -8.972,20 -20,20 -11.028,0 -20,-8.972 -20,-20 0,-11.028 8.972,-20 20,-20 z m -47.323,271.42 94.638,-0.008 20.594,70.815 H 175.371 Z"
   id="path5"
   style="fill:#e40012;fill-opacity:1" />
</g>
<g
   style="fill:none"
   id="g8"
   transform="matrix(13.529811,0,0,13.963288,165.32944,183.38866)"><path
     d="M 1,15 V 9 C 1,5.68629 3.68629,3 7,3 h 10 c 3.3137,0 6,2.68629 6,6 v 6 c 0,3.3137 -2.6863,6 -6,6 H 7 C 3.68629,21 1,18.3137 1,15 Z"
     stroke="#000000"
     stroke-width="1.5"
     id="path1-62" /><path
     d="m 9,9 c 1.6569,0 3,1.3431 3,3 0,1.6569 -1.3431,3 -3,3 C 7.34315,15 6,13.6569 6,12 6,10.3431 7.34315,9 9,9 Z"
     stroke="#000000"
     stroke-width="1.5"
     id="path2-9" /><path
     d="M 14,15 V 9 l 4,6 V 9"
     stroke="#000000"
     stroke-width="1.5"
     stroke-linecap="round"
     stroke-linejoin="round"
     id="path3-1" /></g><path
   d="m 370.84681,219.59917 c -56.0649,0 -101.5143,-45.69009 -101.5143,-102.01935 0,-56.329247 45.4494,-102.019348 101.5143,-102.019348 56.0649,0 101.5143,45.690101 101.5143,102.019348 0,56.32926 -45.4494,102.01935 -101.5143,102.01935 z m 0,-218.6128868 c -64.07727,0 -116.01634,52.1756048 -116.01634,116.5935368 0,64.41793 51.93907,116.59353 116.01634,116.59353 64.07728,0 116.01634,-52.1756 116.01634,-116.59353 0,-64.417932 -51.93906,-116.5935368 -116.01634,-116.5935368 z M 414.35294,110.29273 H 378.09783 V 73.857243 c 0,-4.0079 -3.2412,-7.2871 -7.25102,-7.2871 -4.00982,0 -7.25102,3.2792 -7.25102,7.2871 v 36.435487 h -36.25511 c -4.00981,0 -7.25102,3.27919 -7.25102,7.28709 0,4.00791 3.24121,7.28709 7.25102,7.28709 h 36.25511 v 36.43548 c 0,4.00791 3.2412,7.2871 7.25102,7.2871 4.00982,0 7.25102,-3.27919 7.25102,-7.2871 v -36.43548 h 36.25511 c 4.00981,0 7.25101,-3.27918 7.25101,-7.28709 0,-4.0079 -3.2412,-7.28709 -7.25101,-7.28709 z"
   id="plus-circle"
   sketch:type="MSShapeGroup"
   style="fill:#000000;fill-rule:evenodd;stroke:none;stroke-width:7.26903" /></svg>
