<?xml version="1.0" encoding="UTF-8" standalone="no"?>
<!-- Uploaded to: SVG Repo, www.svgrepo.com, Generator: SVG Repo Mixer Tools -->

<svg
   fill="#000000"
   height="800"
   width="800"
   version="1.1"
   id="Layer_1"
   viewBox="0 0 486.576 486.576"
   xml:space="preserve"
   xmlns="http://www.w3.org/2000/svg"
   xmlns:svg="http://www.w3.org/2000/svg"><defs
   id="defs5" />
<g
   id="g5"
   style="fill:#e40012;fill-opacity:1">
	<path
   d="m 130.151,247.487 c -62.384,-62.384 -62.384,-163.89 0,-226.274 L 108.938,0 c -74.081,74.081 -74.081,194.619 0,268.7 z"
   id="path1"
   style="fill:#e40012;fill-opacity:1" />
	<path
   d="m 356.425,247.487 21.213,21.213 c 74.081,-74.081 74.081,-194.619 0,-268.7 l -21.213,21.213 c 62.384,62.384 62.384,163.89 0,226.274 z"
   id="path2"
   style="fill:#e40012;fill-opacity:1" />
	<path
   d="m 158.436,219.203 21.213,-21.213 c -16.967,-16.967 -26.312,-39.568 -26.312,-63.64 0,-24.072 9.344,-46.672 26.312,-63.64 L 158.436,49.497 c -22.634,22.633 -35.099,52.768 -35.099,84.853 0,32.085 12.465,62.219 35.099,84.853 z"
   id="path3"
   style="fill:#e40012;fill-opacity:1" />
	<path
   d="m 328.141,219.203 c 22.634,-22.633 35.099,-52.768 35.099,-84.853 0,-32.085 -12.465,-62.219 -35.099,-84.853 L 306.928,70.71 c 16.967,16.967 26.312,39.568 26.312,63.64 0,24.072 -9.344,46.672 -26.312,63.64 z"
   id="path4"
   style="fill:#e40012;fill-opacity:1" />
	<path
   d="m 262.19,180.629 c 18.224,-7.471 31.099,-25.395 31.099,-46.279 0,-27.57 -22.43,-50 -50,-50 -27.57,0 -50,22.43 -50,50 0,20.883 12.874,38.808 31.098,46.279 L 144.129,456.577 H 85.387 v 30 h 315.794 v -30 H 342.44 Z m 19.689,175.133 -77.188,0.007 38.597,-132.705 z M 243.288,114.35 c 11.028,0 20,8.972 20,20 0,11.028 -8.972,20 -20,20 -11.028,0 -20,-8.972 -20,-20 0,-11.028 8.972,-20 20,-20 z m -47.323,271.42 94.638,-0.008 20.594,70.815 H 175.371 Z"
   id="path5"
   style="fill:#e40012;fill-opacity:1" />
</g>
<g
   id="layer1"><g
     style="fill:#000000;stroke-width:1.05329;stroke-dasharray:none"
     id="g6"
     transform="matrix(-6.9821929,0,0,6.7128849,486.2243,204.17181)"><path
       id="_37.Stopwatch"
       data-name="37.Stopwatch"
       d="M 37.386,15 A 17.993,17.993 0 1 1 21,9.27 V 5 h -2 a 1,1 0 0 1 0,-2 h 10 a 1,1 0 0 1 0,2 h -2 v 4.265 a 17.967,17.967 0 0 1 9.005,4.35 l 2.329,-2.329 a 0.977,0.977 0 1 1 1.381,1.381 z M 25,5 H 23 V 9.051 C 23.333,9.032 23.662,9 24,9 c 0.338,0 0.667,0.029 1,0.047 z m -1,6 A 16,16 0 1 0 40,27 16,16 0 0 0 24,11 Z m 0,20 a 4,4 0 0 1 -4,-4 3.954,3.954 0 0 1 0.578,-2.041 l -5.293,-5.292 a 0.977,0.977 0 0 1 1.381,-1.381 l 5.293,5.292 A 3.957,3.957 0 0 1 24,23 a 4,4 0 0 1 0,8 z m 0,-6 a 2,2 0 1 0 2,2 2,2 0 0 0 -2,-2 z"
       transform="translate(-6,-3)"
       fill-rule="evenodd"
       style="stroke-width:1.05329;stroke-dasharray:none" /></g></g></svg>
